<?xml version="1.0" standalone="no"?>
<!DOCTYPE svg PUBLIC "-//W3C//DTD SVG 20010904//EN"
 "http://www.w3.org/TR/2001/REC-SVG-20010904/DTD/svg10.dtd">
<svg version="1.0" xmlns="http://www.w3.org/2000/svg"
 width="512.000000pt" height="512.000000pt" viewBox="0 0 512.000000 512.000000"
 preserveAspectRatio="xMidYMid meet">

<g transform="translate(0.000000,512.000000) scale(0.100000,-0.100000)"
fill="#000000" stroke="none">
<path d="M2073 4835 l-23 -16 0 -955 0 -954 -584 0 c-632 0 -630 0 -702 -55
-17 -13 -44 -48 -58 -77 l-26 -52 0 -975 c0 -630 4 -992 11 -1021 14 -64 51
-114 106 -147 l48 -28 650 0 650 0 42 23 c24 12 52 36 65 52 l22 30 1346 0
c1034 0 1349 3 1358 12 9 9 12 485 12 2079 0 1829 -2 2068 -15 2079 -12 10
-321 14 -1448 17 -1320 5 -1434 4 -1454 -12z m1167 -2085 l0 -2010 -470 0
-470 0 0 790 0 790 393 0 c292 0 396 3 405 12 9 9 12 179 12 705 0 674 -1 693
-19 703 -13 6 -157 10 -400 10 -332 0 -382 -2 -395 -16 -14 -14 -16 -71 -16
-482 l0 -466 -35 41 c-19 22 -53 48 -75 57 l-40 16 0 930 0 930 555 0 555 0 0
-2010z m1180 0 l0 -2010 -550 0 -550 0 0 2010 0 2010 550 0 550 0 0 -2010z
m-1390 755 l0 -165 -335 0 -335 0 0 165 0 165 335 0 335 0 0 -165z m0 -675 l0
-430 -335 0 -335 0 0 430 0 430 335 0 335 0 0 -430z m-1054 -26 c15 -11 37
-33 48 -48 21 -27 21 -35 23 -1019 l3 -992 -23 -39 c-45 -78 -25 -76 -620 -76
-526 0 -530 0 -568 22 -25 14 -46 37 -59 63 -20 40 -20 62 -20 1013 0 802 2
978 14 1005 18 43 57 77 98 87 18 5 268 8 555 7 510 -2 522 -2 549 -23z m204
-29 l35 -35 3 -988 c2 -685 0 -998 -8 -1024 -12 -41 -57 -81 -104 -92 l-28 -7
23 38 24 38 3 1010 2 1011 -24 48 -24 48 31 -6 c18 -4 48 -22 67 -41z"/>
<path d="M3466 3734 c-14 -14 -16 -91 -16 -695 0 -450 4 -687 10 -700 10 -18
25 -19 400 -19 213 0 395 3 404 6 14 6 16 77 16 705 0 680 -1 699 -19 709 -13
6 -157 10 -400 10 -332 0 -382 -2 -395 -16z m206 -211 c34 -31 11 -93 -35 -93
-27 0 -57 28 -57 53 0 48 56 73 92 40z m456 -39 c2 -15 -4 -23 -20 -28 -30 -8
-316 -8 -345 0 -22 6 -31 33 -16 48 4 3 90 5 192 4 181 -3 186 -4 189 -24z
m-460 -180 c41 -29 19 -94 -33 -94 -52 0 -74 65 -33 94 12 9 27 16 33 16 6 0
21 -7 33 -16z m460 -38 c2 -10 -2 -22 -10 -27 -15 -10 -338 -12 -362 -3 -16 6
-22 35 -9 48 4 3 90 5 192 4 173 -3 186 -4 189 -22z m-446 -202 c14 -30 -2
-69 -29 -76 -30 -8 -62 9 -69 37 -8 33 1 54 28 64 32 11 58 2 70 -25z m446
-18 c2 -10 -2 -22 -10 -27 -15 -10 -338 -12 -362 -3 -16 6 -22 35 -9 48 4 3
90 5 192 4 173 -3 186 -4 189 -22z m-454 -192 c25 -24 20 -61 -10 -81 -24 -15
-29 -15 -53 -2 -49 27 -35 99 19 99 16 0 36 -7 44 -16z m444 -13 c8 -5 12 -17
10 -27 -3 -18 -15 -19 -193 -19 -178 0 -190 1 -193 19 -2 10 2 22 10 27 7 5
90 9 183 9 94 0 176 -4 183 -9z"/>
<path d="M880 2661 c-7 -13 -10 -303 -10 -870 l0 -851 24 -15 c20 -14 86 -15
525 -13 433 3 503 5 511 18 15 24 13 1723 -2 1738 -9 9 -139 12 -525 12 -496
0 -513 -1 -523 -19z m270 -299 c23 -28 24 -41 9 -75 -33 -73 -139 -47 -139 33
0 74 84 102 130 42z m614 -18 c19 -18 19 -20 6 -45 -10 -18 -24 -19 -270 -19
-246 0 -260 1 -270 19 -13 25 -13 27 6 45 13 14 51 16 264 16 213 0 251 -2
264 -16z m-614 -291 c56 -72 -42 -165 -108 -103 -29 27 -29 83 -2 110 30 30
83 27 110 -7z m610 -23 c16 -16 18 -25 10 -40 -10 -19 -22 -20 -269 -20 -214
0 -261 3 -271 15 -15 18 -4 52 18 58 9 3 124 5 255 6 225 1 238 0 257 -19z
m-615 -285 c30 -30 32 -64 4 -99 -43 -55 -129 -23 -129 49 0 69 76 100 125 50z
m625 -35 c8 -15 6 -24 -10 -40 -19 -19 -32 -20 -258 -20 -199 0 -241 3 -260
16 -12 8 -22 21 -22 28 0 33 22 36 282 36 246 0 258 -1 268 -20z m-647 -261
c24 -11 47 -47 47 -73 0 -7 -9 -25 -21 -40 -24 -31 -81 -36 -111 -9 -29 26
-24 87 8 112 30 24 43 26 77 10z m647 -48 c13 -25 13 -27 -6 -45 -23 -24 -505
-24 -528 0 -19 18 -19 20 -6 45 10 18 24 19 270 19 246 0 260 -1 270 -19z"/>
<path d="M1187 3973 c-4 -3 -7 -91 -7 -194 0 -178 1 -189 20 -199 14 -8 26 -8
40 0 19 10 20 21 20 190 0 98 -3 185 -6 194 -6 16 -54 22 -67 9z"/>
<path d="M1527 3657 c-16 -11 -17 -32 -15 -196 3 -162 5 -185 21 -195 12 -8
22 -8 35 0 15 10 17 33 20 194 2 181 -2 210 -32 210 -7 0 -20 -6 -29 -13z"/>
<path d="M2920 249 c-405 -15 -784 -55 -875 -93 -123 -52 156 -106 695 -136
911 -50 2176 12 2208 108 29 89 -1084 156 -2028 121z"/>
</g>
</svg>
