<?xml version="1.0" standalone="no"?>
<!DOCTYPE svg PUBLIC "-//W3C//DTD SVG 20010904//EN"
 "http://www.w3.org/TR/2001/REC-SVG-20010904/DTD/svg10.dtd">
<svg version="1.0" xmlns="http://www.w3.org/2000/svg"
 width="512.000000pt" height="512.000000pt" viewBox="0 0 512.000000 512.000000"
 preserveAspectRatio="xMidYMid meet">

<g transform="translate(0.000000,512.000000) scale(0.100000,-0.100000)"
fill="#000000" stroke="none">
<path d="M2745 4758 c-36 -36 -65 -68 -65 -72 0 -3 20 -6 45 -6 224 0 544 -80
780 -195 191 -92 332 -192 493 -349 328 -319 522 -715 571 -1168 22 -196 11
-238 -62 -238 -55 0 -65 20 -76 163 -57 699 -483 1272 -1131 1523 -163 62
-416 113 -576 114 -62 0 -85 16 -93 65 l-6 38 -62 -63 -62 -62 15 -30 c18 -35
95 -86 138 -92 17 -3 86 -10 154 -15 643 -57 1184 -483 1389 -1096 46 -135 83
-344 83 -465 0 -69 18 -117 58 -162 130 -144 361 -78 396 112 3 20 1 94 -4
165 -75 930 -742 1682 -1653 1865 -55 11 -137 23 -183 27 l-84 6 -65 -65z"/>
<path d="M2520 4175 c-155 -70 -184 -276 -54 -383 44 -37 91 -49 209 -56 263
-16 555 -158 721 -352 164 -193 244 -385 265 -643 11 -141 26 -180 90 -234
117 -100 295 -54 357 93 20 47 10 260 -17 388 -127 587 -564 1031 -1151 1168
-138 33 -367 43 -420 19z m288 -151 c422 -62 802 -334 1001 -713 93 -179 148
-387 152 -575 2 -82 1 -91 -20 -108 -32 -25 -67 -23 -96 7 -21 21 -25 33 -25
88 0 199 -79 444 -204 632 -212 317 -602 535 -958 535 -64 0 -72 2 -100 30
-24 25 -29 36 -24 58 16 66 76 76 274 46z"/>
<path d="M1741 3751 c-28 -28 -51 -54 -51 -58 0 -4 14 -43 32 -85 l31 -77 -54
-58 c-30 -32 -57 -59 -60 -61 -3 -1 -21 32 -39 75 -19 43 -35 80 -36 82 -2 2
-28 -22 -58 -53 l-56 -56 19 -48 c11 -26 27 -66 36 -89 l17 -43 -106 -115
c-76 -83 -107 -125 -112 -149 -12 -67 82 -337 191 -552 276 -540 733 -949
1273 -1138 168 -59 182 -54 317 112 50 61 93 111 96 111 7 1 1120 -517 1127
-524 12 -12 -91 -196 -147 -261 -109 -130 -284 -239 -456 -285 -124 -33 -356
-38 -500 -10 -349 66 -732 261 -1155 585 -556 427 -980 940 -1255 1519 -38 81
-73 147 -77 147 -3 0 -30 -23 -58 -51 l-52 -51 22 -52 c145 -337 390 -713 681
-1041 454 -514 1104 -975 1618 -1147 207 -69 290 -82 511 -82 179 0 203 2 293
26 446 121 734 459 798 934 20 149 -1 184 -142 246 -46 20 -228 105 -404 188
-589 280 -602 285 -661 258 -15 -7 -119 -122 -231 -255 -112 -134 -206 -243
-208 -243 -2 0 -45 16 -95 35 -292 112 -533 269 -751 492 -192 196 -318 376
-435 618 -57 118 -144 348 -144 380 0 8 95 116 211 242 116 125 217 243 226
262 8 20 12 47 9 63 -6 32 -93 239 -105 251 -5 5 -32 -14 -60 -42z m1710
-1985 c30 -13 212 -98 404 -189 193 -91 389 -183 438 -205 48 -23 87 -46 87
-53 0 -33 -23 -140 -30 -137 -18 7 -1055 491 -1059 494 -6 5 89 114 99 114 4
0 32 -11 61 -24z"/>
<path d="M2465 3521 c-106 -26 -175 -114 -175 -223 0 -67 26 -124 75 -166 52
-46 75 -53 197 -62 132 -9 212 -42 291 -122 86 -86 127 -192 127 -332 0 -76
24 -129 78 -178 109 -98 276 -67 347 65 26 47 29 59 28 157 -2 372 -237 699
-590 821 -118 41 -297 59 -378 40z m320 -185 c185 -63 351 -212 428 -383 38
-85 57 -166 64 -268 5 -82 3 -92 -17 -117 -15 -20 -30 -28 -54 -28 -52 0 -69
27 -73 118 -4 104 -19 163 -61 252 -89 189 -304 319 -529 320 -54 0 -64 3 -82
26 -27 34 -26 54 1 89 l21 27 111 -4 c86 -4 129 -11 191 -32z"/>
</g>
</svg>
